{
  "accessors": [
    {
      "bufferView": 1,
      "componentType": 5126,
      "count": 283,
      "max": [
        0.96193987131118774,
        0.48316788673400879,
        0.96193981170654297
      ],
      "min": [
        -0.96193981170654297,
        -1.0033829212188721,
        -0.96193981170654297
      ],
      "type": "VEC3"
    },
    {
      "bufferView": 1,
      "byteOffset": 3396,
      "componentType": 5126,
      "count": 283,
      "max": [
        0.97893202304840088,
        0.67407369613647461,
        0.97901594638824463
      ],
      "min": [
        -0.97901469469070435,
        -1,
        -0.97893106937408447
      ],
      "type": "VEC3"
    },
    {
      "bufferView": 2,
      "componentType": 5126,
      "count": 283,
      "max": [
        1,
        0.6932213306427002,
        0.99999481439590454,
        1
      ],
      "min": [
        -0.99372923374176025,
        -0.57886749505996704,
        -0.99981862306594849,
        -1
      ],
      "type": "VEC4"
    },
    {
      "bufferView": 0,
      "componentType": 5125,
      "count": 744,
      "max": [
        282
      ],
      "min": [
        0
      ],
      "type": "SCALAR"
    }
  ],
  "asset": {
    "extras": {
      "author": "joae12 (https://sketchfab.com/joae12)",
      "license": "CC-BY-4.0 (http://creativecommons.org/licenses/by/4.0/)",
      "source": "https://sketchfab.com/models/ba5888a67cd444f4b1656a97909c479c",
      "title": "Diamond"
    },
    "generator": "Sketchfab-3.18.6",
    "version": "2.0"
  },
  "bufferViews": [
    {
      "buffer": 0,
      "byteLength": 2976,
      "byteOffset": 0,
      "name": "floatBufferViews",
      "target": 34963
    },
    {
      "buffer": 0,
      "byteLength": 6792,
      "byteOffset": 2976,
      "byteStride": 12,
      "name": "floatBufferViews",
      "target": 34962
    },
    {
      "buffer": 0,
      "byteLength": 4528,
      "byteOffset": 9768,
      "byteStride": 16,
      "name": "floatBufferViews",
      "target": 34962
    }
  ],
  "buffers": [
    {
      "byteLength": 14296,
      "uri": "scene.bin"
    }
  ],
  "extensionsRequired": [
    "KHR_materials_pbrSpecularGlossiness"
  ],
  "extensionsUsed": [
    "KHR_materials_pbrSpecularGlossiness"
  ],
  "materials": [
    {
      "alphaMode": "BLEND",
      "doubleSided": true,
      "emissiveFactor": [
        0,
        0,
        0
      ],
      "extensions": {
        "KHR_materials_pbrSpecularGlossiness": {
          "diffuseFactor": [
            0.5,
            0.5,
            0.5,
            0.90682164629999995
          ],
          "glossinessFactor": 1,
          "specularFactor": [
            0.64195884150000004,
            0.64195884150000004,
            0.64195884150000004
          ]
        }
      },
      "name": "lambert1"
    }
  ],
  "meshes": [
    {
      "name": "pCone1_lambert1_0",
      "primitives": [
        {
          "attributes": {
            "NORMAL": 1,
            "POSITION": 0,
            "TANGENT": 2
          },
          "indices": 3,
          "material": 0,
          "mode": 4
        }
      ]
    }
  ],
  "nodes": [
    {
      "children": [
        1
      ],
      "name": "RootNode (gltf orientation matrix)",
      "rotation": [
        -0.70710678118654746,
        -0,
        -0,
        0.70710678118654757
      ]
    },
    {
      "children": [
        2
      ],
      "name": "RootNode (model correction matrix)"
    },
    {
      "children": [
        3
      ],
      "matrix": [
        1,
        0,
        0,
        0,
        0,
        0,
        1,
        0,
        0,
        -1,
        0,
        0,
        0,
        0,
        0,
        1
      ],
      "name": "cffff30abc5e41d1a37e17528449f8bd.fbx"
    },
    {
      "children": [
        4
      ],
      "name": "RootNode"
    },
    {
      "children": [
        5
      ],
      "matrix": [
        1,
        0,
        0,
        0,
        0,
        -1,
        1.2246467991473532e-16,
        0,
        0,
        -1.2246467991473532e-16,
        -1,
        0,
        0,
        0,
        0,
        1
      ],
      "name": "pCone1"
    },
    {
      "mesh": 0,
      "name": "pCone1_lambert1_0"
    }
  ],
  "scene": 0,
  "scenes": [
    {
      "name": "OSG_Scene",
      "nodes": [
        0
      ]
    }
  ]
}

